<?xml version="1.0" standalone="no"?>
<!DOCTYPE svg PUBLIC "-//W3C//DTD SVG 20010904//EN"
 "http://www.w3.org/TR/2001/REC-SVG-20010904/DTD/svg10.dtd">
<svg version="1.0" xmlns="http://www.w3.org/2000/svg"
 width="512.000000pt" height="512.000000pt" viewBox="0 0 512.000000 512.000000"
 preserveAspectRatio="xMidYMid meet">

<g transform="translate(0.000000,512.000000) scale(0.100000,-0.100000)"
fill="#000000" stroke="none">
<path d="M2395 4809 c-498 -52 -948 -330 -1219 -753 -287 -449 -335 -1034
-125 -1524 15 -34 19 -69 19 -152 0 -118 9 -140 56 -140 23 0 24 -2 24 -74 0
-82 13 -106 56 -106 l24 0 0 -519 0 -519 -30 -7 c-40 -9 -50 -31 -50 -109 0
-64 0 -65 -30 -71 -42 -9 -50 -31 -50 -129 l0 -86 -35 0 c-22 0 -43 -8 -55
-20 -18 -18 -20 -33 -20 -143 0 -107 2 -126 18 -140 17 -16 141 -17 1584 -17
1503 0 1566 1 1581 18 14 15 17 41 17 140 0 109 -2 124 -20 142 -12 12 -33 20
-55 20 l-35 0 0 86 c0 98 -8 120 -50 129 -30 6 -30 7 -30 71 0 78 -10 100 -50
109 l-30 7 0 519 0 519 24 0 c43 0 56 24 56 106 0 72 1 74 24 74 47 0 56 22
56 141 0 93 4 118 24 167 250 594 121 1287 -329 1761 -344 362 -855 552 -1350
500z m115 -449 l0 -360 -291 0 -290 0 7 23 c15 50 79 206 107 262 77 155 188
294 290 364 45 31 136 70 165 71 9 0 12 -78 12 -360z m205 330 c157 -68 310
-262 420 -536 19 -46 39 -100 44 -119 l9 -35 -289 0 -289 0 0 361 0 361 32 -7
c18 -4 50 -15 73 -25z m-548 -62 c-70 -73 -146 -185 -202 -295 -46 -93 -125
-292 -125 -318 0 -13 -41 -15 -296 -15 l-295 0 42 61 c205 291 503 505 844
604 44 12 81 22 82 21 1 -1 -21 -27 -50 -58z m937 -2 c285 -108 547 -312 725
-565 l42 -61 -295 0 -294 0 -8 33 c-3 17 -22 73 -41 122 -72 189 -173 361
-280 474 -29 30 -53 56 -53 58 0 4 143 -38 204 -61z m-1297 -729 c-11 -29 -41
-189 -56 -302 l-16 -120 -348 -3 -347 -2 6 27 c28 129 101 331 139 389 l15 24
306 0 c248 0 305 -2 301 -13z m703 -207 l0 -220 -340 0 c-334 0 -340 0 -340
20 0 56 52 347 70 396 l10 24 300 0 300 0 0 -220z m722 149 c17 -72 43 -218
54 -311 l6 -58 -341 0 -341 0 0 220 0 220 303 -2 302 -3 17 -66z m703 47 c38
-58 111 -260 139 -389 l6 -27 -347 2 -347 3 -18 124 c-17 119 -45 271 -55 298
-4 11 53 13 301 13 l306 0 15 -24z m-2210 -721 l0 -215 -347 0 -347 0 -8 38
c-10 45 -10 350 -1 375 7 16 33 17 355 17 l348 0 0 -215z m785 151 l0 -64
-336 -172 c-185 -94 -339 -169 -342 -165 -10 10 -18 243 -14 363 l5 102 343 0
344 0 0 -64z m792 -38 c4 -119 -4 -353 -13 -363 -4 -3 -158 71 -343 165 l-336
172 0 64 0 64 344 0 343 0 5 -102z m796 85 c9 -24 8 -329 -1 -375 l-8 -38
-347 0 -348 0 1 215 0 215 348 0 c322 0 348 -1 355 -17z m-837 -545 l694 -353
0 -65 0 -65 -1395 0 -1395 0 0 65 0 65 690 351 c380 194 695 352 701 353 6 1
323 -158 705 -351z m-1547 33 c-26 -24 -567 -292 -574 -285 -11 11 -77 207
-85 257 l-7 37 338 0 c196 0 334 -4 328 -9z m2351 -28 c-8 -49 -74 -245 -85
-257 -7 -7 -580 278 -580 290 0 2 151 4 336 4 l336 0 -7 -37z m-2465 -628 l0
-45 -175 0 -175 0 0 45 0 45 175 0 175 0 0 -45z m1830 -29 c0 -82 13 -106 56
-106 l24 0 0 -525 0 -525 -30 0 c-39 0 -50 -23 -50 -109 l0 -71 -70 0 -70 0 0
568 c0 428 -3 571 -12 580 -19 19 -1421 17 -1437 -1 -8 -10 -12 -182 -13 -578
l-3 -564 -67 -3 -68 -3 0 79 c0 86 -8 102 -52 102 l-28 0 0 525 0 525 24 0
c43 0 56 24 56 106 l0 74 870 0 870 0 0 -74z m445 29 l0 -40 -175 0 -175 0 -3
43 -3 42 178 -2 178 -3 0 -40z m-2360 -660 l0 -520 -92 -3 -93 -3 0 526 0 526
93 -3 92 -3 0 -520z m2275 0 l0 -526 -92 3 -93 3 -3 510 c-1 281 0 516 3 523
3 8 32 12 95 12 l90 0 0 -525z m-1280 -170 l0 -535 -292 2 -293 3 -3 533 -2
532 295 0 295 0 0 -535z m688 3 l-3 -533 -292 -3 -293 -2 0 535 0 535 295 0
295 0 -2 -532z m-1600 -490 l-3 -43 -172 -3 -173 -2 0 45 0 45 176 0 175 0 -3
-42z m2280 0 l-3 -43 -175 0 -175 0 -3 43 -3 42 181 0 181 0 -3 -42z m80 -200
l-3 -63 -1395 0 -1395 0 -3 63 -3 62 1401 0 1401 0 -3 -62z m112 -218 l0 -60
-1510 0 -1510 0 0 60 0 60 1510 0 1510 0 0 -60z"/>
<path d="M2530 3050 c-11 -11 -20 -30 -20 -42 0 -15 -11 -29 -29 -39 -37 -21
-66 -94 -57 -144 10 -50 42 -82 110 -108 70 -27 85 -45 68 -81 -9 -21 -19 -26
-46 -26 -25 0 -38 6 -46 19 -15 29 -48 36 -71 15 -10 -9 -19 -23 -19 -31 0
-22 31 -63 58 -77 14 -7 30 -28 36 -47 10 -30 15 -34 46 -34 32 0 36 3 44 37
5 22 18 41 32 49 26 14 64 83 64 117 0 63 -44 116 -113 137 -58 17 -77 31 -77
54 0 54 64 71 105 27 13 -14 28 -26 32 -26 17 0 53 32 53 46 0 24 -31 64 -61
80 -17 8 -29 23 -29 34 0 21 -33 60 -50 60 -5 0 -19 -9 -30 -20z"/>
</g>
</svg>
