<?xml version="1.0" standalone="no"?>
<!DOCTYPE svg PUBLIC "-//W3C//DTD SVG 20010904//EN"
 "http://www.w3.org/TR/2001/REC-SVG-20010904/DTD/svg10.dtd">
<svg version="1.0" xmlns="http://www.w3.org/2000/svg"
 width="512.000000pt" height="512.000000pt" viewBox="0 0 512.000000 512.000000"
 preserveAspectRatio="xMidYMid meet">

<g transform="translate(0.000000,512.000000) scale(0.100000,-0.100000)"
fill="#000000" stroke="none">
<path d="M3695 4818 c-11 -6 -668 -384 -1460 -841 -1554 -895 -1513 -869
-1549 -973 -17 -51 -24 -309 -8 -302 5 2 273 156 597 343 323 187 1025 592
1559 901 l971 560 3 135 c2 125 1 138 -18 162 -23 29 -60 35 -95 15z m-2169
-1403 c38 -58 -22 -174 -103 -199 -30 -9 -63 25 -63 64 0 66 74 160 126 160
14 0 30 -10 40 -25z m-292 -148 c60 -44 -26 -217 -108 -217 -42 0 -59 69 -32
133 15 38 79 97 104 97 10 0 26 -6 36 -13z m-276 -169 c32 -32 -4 -150 -59
-189 -37 -26 -79 -22 -97 11 -44 79 95 239 156 178z"/>
<path d="M3127 2600 c-38 -35 -88 -91 -112 -125 -40 -56 -120 -204 -113 -209
6 -5 288 11 293 16 3 3 4 90 3 194 l-3 188 -68 -64z"/>
<path d="M1410 2546 c-255 -94 -478 -369 -568 -699 -23 -88 -23 -275 1 -344
10 -28 27 -63 38 -77 l20 -25 -23 -35 c-19 -28 -27 -34 -49 -29 -23 4 -35 -6
-101 -84 -150 -179 -277 -363 -387 -566 -52 -97 -61 -120 -51 -132 19 -22 159
-115 175 -115 17 0 156 168 264 318 86 120 186 284 241 392 28 56 30 64 16 79
-13 15 -13 20 6 49 11 17 23 32 27 32 4 0 24 -9 45 -20 206 -104 531 109 706
465 83 167 104 250 105 400 0 134 -10 179 -56 248 -29 44 -119 108 -202 145
-36 16 -162 14 -207 -2z m301 -125 c43 -53 63 -143 56 -258 -7 -118 -32 -207
-92 -332 -126 -261 -342 -456 -525 -475 -86 -9 -119 8 -155 78 -28 56 -30 66
-30 175 1 137 22 224 90 368 58 123 105 193 194 285 124 131 260 202 375 195
53 -3 62 -7 87 -36z"/>
<path d="M3848 1479 l-88 -51 0 -421 c0 -419 0 -422 23 -462 l22 -39 143 -23
143 -23 104 61 105 61 0 368 0 368 -37 78 c-20 44 -41 82 -45 85 -5 3 -62 14
-126 23 -64 10 -126 19 -137 22 -12 2 -55 -17 -107 -47z"/>
<path d="M3260 841 l0 -640 33 -6 c17 -3 83 -14 145 -24 l112 -17 -2 640 -3
641 -110 17 c-60 9 -125 20 -142 23 l-33 6 0 -640z"/>
</g>
</svg>
