<?xml version="1.0" standalone="no"?>
<!DOCTYPE svg PUBLIC "-//W3C//DTD SVG 20010904//EN"
 "http://www.w3.org/TR/2001/REC-SVG-20010904/DTD/svg10.dtd">
<svg version="1.0" xmlns="http://www.w3.org/2000/svg"
 width="512.000000pt" height="512.000000pt" viewBox="0 0 512.000000 512.000000"
 preserveAspectRatio="xMidYMid meet">

<g transform="translate(0.000000,512.000000) scale(0.100000,-0.100000)"
fill="#000000" stroke="none">
<path d="M2705 3058 l-1330 -1333 1333 1330 c732 731 1332 1331 1332 1332 0 2
-1 3 -3 3 -1 0 -601 -600 -1332 -1332z"/>
<path d="M2721 3046 l-1343 -1343 -9 -179 c-13 -254 -38 -654 -44 -686 l-4
-28 1240 0 1240 0 -6 33 c-12 73 -45 697 -55 1040 -20 677 19 1128 114 1315
40 80 88 95 129 40 13 -18 80 -127 147 -243 67 -115 128 -216 135 -223 9 -11
79 23 366 174 195 103 357 190 361 193 7 6 -612 959 -713 1098 -80 110 -111
135 -180 146 l-36 5 -1342 -1342z"/>
<path d="M1301 553 c-6 -71 -11 -140 -11 -155 l0 -28 1275 0 1275 0 -4 23 c-3
12 -8 60 -11 107 -3 47 -9 106 -12 133 l-6 47 -1247 0 -1247 0 -12 -127z"/>
</g>
</svg>
